# Blender v2.93.6 OBJ File: ''
# www.blender.org
mtllib ev_stairs_down.mtl
o ev_stairs_down
v 0.183198 0.120000 -0.188798
v 0.183198 0.120000 -0.158801
v 0.203467 0.150000 -0.297609
v 0.203467 0.150000 -0.297609
v 0.183198 0.120000 0.387095
v 0.203467 0.150000 0.417055
v 0.182973 0.120006 0.417134
v 0.227094 0.150000 0.387095
v 0.227094 0.150000 -0.267612
v -0.372006 0.060000 0.000000
v -0.371991 0.060000 0.417235
v -0.348661 0.060000 0.387103
v -0.348661 0.060000 0.023961
v -0.212323 0.060000 0.000000
v -0.372006 0.060000 0.000000
v -0.348661 0.060000 0.023961
v -0.212321 0.060000 0.023961
v -0.372006 0.060000 0.000000
v -0.419444 0.183707 0.417333
v -0.371991 0.060000 0.417235
v -0.419444 0.183707 -0.000067
v -0.372006 0.060000 0.000000
v -0.419444 0.183707 -0.410014
v -0.419444 0.183707 -0.417467
v -0.348661 0.060000 0.387103
v -0.371991 0.060000 0.417235
v -0.212322 0.060000 0.417137
v -0.212321 0.060000 0.387103
v -0.348661 0.060000 0.023961
v -0.212321 0.060000 0.023961
v -0.171112 0.090000 0.387100
v -0.194738 0.090000 0.417100
v -0.018667 0.090000 0.417100
v -0.018667 0.090000 0.387100
v -0.171112 0.090000 -0.057642
v -0.018667 0.090000 -0.057642
v -0.018667 0.090000 -0.087639
v -0.194738 0.090000 -0.087639
v 0.023433 0.120000 0.387095
v -0.000193 0.120000 0.417061
v 0.182973 0.120006 0.417134
v 0.183198 0.120000 0.387095
v 0.023433 0.120000 -0.158801
v 0.183198 0.120000 -0.158801
v 0.183198 0.120000 -0.188798
v -0.000193 0.120000 -0.188798
v 0.227094 0.150000 0.387095
v 0.203467 0.150000 0.417055
v 0.403278 0.150000 0.417055
v 0.403278 0.150000 0.386793
v 0.227094 0.150000 -0.267612
v 0.403278 0.150000 -0.001315
v 0.403278 0.150000 -0.267191
v 0.403278 0.150000 -0.297609
v 0.203467 0.150000 -0.297609
v 0.500000 0.167473 -0.490790
v 0.500000 0.167473 -0.500067
v 0.479506 0.183707 -0.477352
v 0.479506 0.183707 -0.000067
v 0.500000 0.167473 -0.000034
v 0.479506 0.183707 0.477218
v 0.500000 0.167473 0.500000
v 0.203467 0.150000 -0.297609
v 0.403278 0.150000 -0.297609
v 0.419444 0.183707 -0.417467
v 0.000000 0.183707 -0.417467
v 0.183198 0.120000 -0.188798
v -0.000193 0.120000 -0.188798
v -0.194738 0.090000 -0.087639
v -0.018667 0.090000 -0.087639
v -0.419444 0.183707 -0.417467
v -0.372006 0.060000 0.000000
v -0.212323 0.060000 0.000000
v 0.500000 -0.000000 0.500000
v 0.500000 0.167473 0.500000
v 0.494948 0.167473 0.500000
v 0.494948 -0.000000 0.500000
v 0.000000 0.167473 0.500000
v 0.000000 -0.000000 0.500000
v -0.496385 0.167473 0.500000
v -0.496385 -0.000000 0.500000
v -0.500000 0.167473 0.500000
v -0.500000 -0.000000 0.500000
v -0.500000 0.167473 -0.500000
v 0.000000 0.167473 -0.500067
v -0.500000 0.000000 -0.500000
v 0.000000 0.000000 -0.500000
v 0.500000 0.167473 -0.500067
v 0.500000 0.000000 -0.500000
v 0.500000 -0.000000 0.500000
v 0.500000 -0.000000 -0.000000
v 0.500000 0.167473 0.500000
v 0.500000 0.167473 -0.000034
v 0.500000 0.000000 -0.490724
v 0.500000 0.167473 -0.490790
v 0.500000 0.000000 -0.500000
v 0.500000 0.167473 -0.500067
v -0.500000 -0.000000 0.500000
v -0.500000 0.167473 0.500000
v -0.500000 0.167473 -0.000034
v -0.500000 -0.000000 -0.000000
v -0.500000 0.167473 -0.491072
v -0.500000 0.000000 -0.491072
v -0.500000 0.167473 -0.500000
v -0.500000 0.000000 -0.500000
v 0.500000 0.167473 0.500000
v 0.479506 0.183707 0.477218
v 0.494948 0.167473 0.500000
v 0.000000 0.183707 0.477218
v 0.000000 0.167473 0.500000
v -0.479506 0.183707 0.477218
v -0.496385 0.167473 0.500000
v -0.500000 0.167473 0.500000
v -0.500000 0.167473 0.500000
v -0.479506 0.183707 0.477218
v -0.500000 0.167473 -0.000034
v -0.479506 0.183707 -0.000067
v -0.500000 0.167473 -0.491072
v -0.479506 0.183707 -0.477352
v -0.500000 0.167473 -0.500000
v 0.403278 0.150000 0.417055
v 0.415206 0.183707 0.417333
v 0.419444 0.183707 0.417333
v 0.203467 0.150000 0.417055
v 0.000000 0.183707 0.417333
v 0.182973 0.120006 0.417134
v -0.000193 0.120000 0.417061
v -0.194738 0.090000 0.417100
v -0.018667 0.090000 0.417100
v -0.371991 0.060000 0.417235
v -0.212322 0.060000 0.417137
v -0.415385 0.183707 0.417333
v -0.419444 0.183707 0.417333
v 0.403278 0.150000 0.386793
v 0.403278 0.150000 0.417055
v 0.419444 0.183707 0.417333
v 0.403278 0.150000 -0.001315
v 0.419444 0.183707 -0.000067
v 0.419444 0.183707 0.417333
v 0.415206 0.183707 0.417333
v 0.425708 0.183707 0.423579
v 0.000000 0.183707 0.417333
v 0.000000 0.183707 0.423579
v 0.479506 0.183707 0.477218
v 0.000000 0.183707 0.477218
v -0.425708 0.183707 0.423579
v -0.479506 0.183707 0.477218
v -0.415385 0.183707 0.417333
v -0.419444 0.183707 0.417333
v -0.500000 0.167473 -0.500000
v -0.479506 0.183707 -0.477352
v 0.000000 0.167473 -0.500067
v 0.000000 0.183707 -0.477352
v 0.479506 0.183707 -0.477352
v 0.500000 0.167473 -0.500067
v 0.403278 0.150000 -0.267191
v 0.403278 0.150000 -0.001315
v 0.419444 0.183707 -0.000067
v 0.419444 0.183707 -0.409723
v 0.419444 0.183707 -0.417467
v 0.403278 0.150000 -0.297609
v -0.000193 0.120000 0.417061
v -0.018667 0.090000 0.387100
v -0.018667 0.090000 0.417100
v -0.000193 0.120000 -0.188798
v -0.018667 0.090000 -0.057642
v -0.018667 0.090000 -0.087639
v 0.023433 0.120000 0.387095
v 0.023433 0.120000 -0.158801
v -0.194738 0.090000 0.417100
v -0.212321 0.060000 0.387103
v -0.212322 0.060000 0.417137
v -0.194738 0.090000 -0.087639
v -0.212321 0.060000 0.023961
v -0.212323 0.060000 0.000000
v -0.171112 0.090000 0.387100
v -0.171112 0.090000 -0.057642
v 0.425708 0.183707 -0.423713
v 0.419444 0.183707 -0.417467
v 0.419444 0.183707 -0.409723
v 0.425708 0.183707 -0.000067
v 0.479506 0.183707 -0.477352
v 0.419444 0.183707 -0.000067
v 0.479506 0.183707 -0.000067
v 0.425708 0.183707 0.423579
v 0.419444 0.183707 0.417333
v 0.479506 0.183707 0.477218
v -0.479506 0.183707 -0.477352
v -0.425708 0.183707 -0.423713
v 0.000000 0.183707 -0.477352
v 0.000000 0.183707 -0.423713
v 0.479506 0.183707 -0.477352
v -0.419444 0.183707 -0.417467
v 0.425708 0.183707 -0.423713
v 0.000000 0.183707 -0.417467
v 0.419444 0.183707 -0.417467
v -0.479506 0.183707 0.477218
v -0.425708 0.183707 0.423579
v -0.479506 0.183707 -0.000067
v -0.425708 0.183707 -0.423713
v -0.479506 0.183707 -0.477352
v -0.425708 0.183707 -0.000067
v -0.419444 0.183707 0.417333
v -0.419444 0.183707 -0.000067
v -0.419444 0.183707 -0.410014
v -0.419444 0.183707 -0.417467
vt -1.121536 0.751874
vt -1.074780 0.751874
vt -1.257599 0.936899
vt -1.257599 0.936899
vt -0.325565 0.751874
vt -0.289345 0.936899
vt -0.289345 0.751874
vt -0.329843 0.971868
vt -1.217052 0.971868
vt -1.257599 0.147412
vt -0.289345 0.147456
vt -0.357858 0.224832
vt -1.203212 0.224704
vt 0.758085 0.010062
vt 0.758085 0.255834
vt 0.723937 0.227388
vt 0.723937 0.010062
vt 0.981026 -2.000000
vt 0.018974 -1.009917
vt 0.018974 -2.000000
vt 0.981026 -1.009917
vt 0.981026 -2.000000
vt 1.925900 -1.009917
vt 1.943079 -1.009917
vt -0.176020 0.227388
vt -0.210169 0.255834
vt -0.210169 0.010062
vt -0.176019 0.010062
vt 0.723937 0.227388
vt 0.723937 0.010062
vt -0.176019 0.469376
vt -0.210169 0.500001
vt -0.210169 0.268003
vt -0.176020 0.268003
vt 0.723937 0.469377
vt 0.723937 0.268003
vt 0.758085 0.268003
vt 0.758085 0.500000
vt -0.176019 0.723046
vt -0.210169 0.752419
vt -0.210169 0.502449
vt -0.176019 0.502449
vt 0.723937 0.723087
vt 0.723937 0.502449
vt 0.758085 0.502449
vt 0.758085 0.752363
vt -0.176019 0.968919
vt -0.210169 0.995144
vt -0.210169 0.757073
vt -0.176019 0.757073
vt 0.723937 0.968920
vt 0.357887 0.757073
vt 0.723937 0.757073
vt 0.758085 0.757073
vt 0.758085 0.995144
vt -1.252959 1.558429
vt -1.277918 1.558429
vt -1.213241 1.623204
vt 0.066975 1.623204
vt 0.067430 1.558429
vt 1.329335 1.623204
vt 1.394011 1.558429
vt 3.488070 -1.291387
vt 3.943079 -1.291387
vt 3.943078 -1.009917
vt 2.981026 -1.009917
vt 3.480900 -1.550846
vt 2.981026 -1.550846
vt 2.487883 -1.790065
vt 2.956967 -1.790065
vt 2.018974 -1.009917
vt 2.018974 -2.000000
vt 2.435520 -2.000000
vt 1.387857 1.033347
vt 1.387857 1.502737
vt 1.374399 1.502737
vt 1.374399 1.033347
vt 0.055907 1.502737
vt 0.055907 1.033347
vt -1.266415 1.502737
vt -1.266415 1.033347
vt -1.276044 1.502737
vt -1.276044 1.033347
vt -1.276044 1.502737
vt 0.055907 1.502737
vt -1.276044 1.033347
vt 0.055907 1.033347
vt 1.387857 1.502737
vt 1.387857 1.033347
vt -1.276044 1.033347
vt 0.055907 1.033347
vt -1.276044 1.502737
vt 0.055907 1.502737
vt 1.363147 1.033347
vt 1.363147 1.502737
vt 1.387857 1.033347
vt 1.387857 1.502737
vt -1.276044 1.033347
vt -1.276044 1.502737
vt 0.055907 1.502737
vt 0.055907 1.033347
vt 1.364073 1.502737
vt 1.364073 1.033347
vt 1.387857 1.502737
vt 1.387857 1.033347
vt 1.394011 1.558429
vt 1.329335 1.623204
vt 1.380621 1.558429
vt 0.068331 1.623204
vt 0.068854 1.558429
vt -1.213241 1.623204
vt -1.268182 1.558429
vt -1.277918 1.558429
vt -1.277918 1.558429
vt -1.213241 1.623205
vt 0.067430 1.558429
vt 0.066975 1.623205
vt 1.370323 1.558429
vt 1.329334 1.623204
vt 1.394011 1.558429
vt -1.981026 -1.164412
vt -1.971306 -1.009917
vt -1.981026 -1.009917
vt -1.507085 -1.210938
vt -1.018974 -1.009917
vt -1.454935 -1.467464
vt -1.018974 -1.507588
vt -0.520107 -1.740447
vt -0.970564 -1.744634
vt -0.056921 -2.000000
vt -0.467563 -2.000000
vt -0.066231 -1.009917
vt -0.056921 -1.009917
vt 5.910741 -1.167204
vt 5.981026 -1.167204
vt 5.981026 -1.009917
vt 5.018974 -1.167204
vt 5.018974 -1.009917
vt 1.676212 -0.322270
vt 1.665695 -0.322270
vt 1.691119 -0.337547
vt 0.635311 -0.322270
vt 0.635311 -0.337547
vt 1.819135 -0.468733
vt 0.635311 -0.468733
vt -0.426484 -0.337547
vt -0.554500 -0.468733
vt -0.401446 -0.322270
vt -0.411577 -0.322270
vt 1.394011 1.558429
vt 1.329335 1.623205
vt 0.055987 1.558429
vt 0.056085 1.623204
vt -1.213241 1.623204
vt -1.277918 1.558429
vt 4.369434 -1.167204
vt 4.981026 -1.167204
vt 4.981026 -1.009917
vt 4.036822 -1.009917
vt 4.018974 -1.009917
vt 4.298385 -1.167204
vt -0.289345 0.687298
vt -0.332816 0.508172
vt -0.289345 0.508170
vt -1.257599 0.687302
vt -1.053299 0.508169
vt -1.107145 0.508169
vt -0.336676 0.740211
vt -1.210218 0.740211
vt -0.289345 0.452888
vt -0.346037 0.365168
vt -0.289345 0.365171
vt -1.257599 0.452886
vt -1.044600 0.365168
vt -1.091635 0.365175
vt -0.346948 0.497010
vt -1.200003 0.497010
vt 1.691119 -0.337547
vt 1.676212 -0.322270
vt 1.656901 -0.322270
vt 0.635311 -0.337547
vt 1.819135 -0.468733
vt 0.635311 -0.322270
vt 0.635311 -0.468733
vt -0.426484 -0.337547
vt -0.411577 -0.322270
vt -0.554500 -0.468733
vt 1.819135 -0.468733
vt 1.691119 -0.337547
vt 0.635311 -0.468733
vt 0.635311 -0.337547
vt -0.554500 -0.468733
vt 1.676212 -0.322270
vt -0.426484 -0.337547
vt 0.635311 -0.322270
vt -0.411577 -0.322270
vt 1.819135 -0.468733
vt 1.691119 -0.337547
vt 0.635311 -0.468733
vt -0.426484 -0.337547
vt -0.554500 -0.468733
vt 0.635311 -0.337547
vt 1.676212 -0.322270
vt 0.635311 -0.322270
vt -0.392883 -0.322270
vt -0.411577 -0.322270
vn -0.8286 0.5598 0.0000
vn -0.4691 0.8831 -0.0000
vn -0.8272 0.5620 -0.0031
vn -0.4680 0.8837 -0.0018
vn -0.8257 0.5641 -0.0063
vn -0.0000 1.0000 0.0000
vn 0.9337 0.3581 -0.0000
vn 0.5420 0.7887 -0.2902
vn 0.5666 0.8240 0.0000
vn 0.9337 0.3580 0.0000
vn 0.2073 0.9699 0.1279
vn -0.4972 0.8677 -0.0000
vn -0.4971 0.8677 0.0000
vn -0.4877 0.8730 0.0000
vn -0.0000 1.0000 -0.0002
vn 0.0000 1.0000 -0.0001
vn 0.9003 0.4354 0.0000
vn 0.5849 0.5763 -0.5707
vn 0.2705 0.9544 -0.1267
vn 0.3288 0.9444 -0.0000
vn 0.1348 0.9583 0.2520
vn 0.5849 0.5768 0.5703
vn 0.0006 0.9631 0.2691
vn 0.0000 0.9627 0.2707
vn -0.4253 0.9028 0.0638
vn -0.0002 0.9865 0.1636
vn 0.0011 0.9635 0.2676
vn -0.0004 0.9615 0.2747
vn -0.0066 0.9591 0.2829
vn 0.0000 0.9587 0.2843
vn -0.0175 0.9563 0.2920
vn 0.7071 0.0000 0.7071
vn 0.0000 0.4581 0.8889
vn 0.0000 0.0000 1.0000
vn -0.5849 0.5768 0.5703
vn -0.7071 0.0002 0.7071
vn -0.5849 0.5762 -0.5708
vn -0.0000 0.4572 -0.8894
vn -0.7071 -0.0001 -0.7071
vn 0.0000 -0.0004 -1.0000
vn 0.5850 0.5763 -0.5707
vn 0.7071 -0.0000 -0.7071
vn 0.7071 0.0002 0.7071
vn 1.0000 0.0000 0.0000
vn 0.7071 -0.0003 -0.7071
vn -0.7071 0.0000 0.7071
vn -0.9003 0.4354 0.0000
vn -1.0000 0.0000 0.0000
vn -0.7071 -0.0003 -0.7071
vn 0.5849 0.5767 0.5703
vn 0.1349 0.9583 0.2520
vn 0.0000 0.9525 0.3047
vn -0.1349 0.9583 0.2520
vn -0.5849 0.5767 0.5703
vn -0.1348 0.9583 0.2520
vn -0.3288 0.9444 0.0000
vn -0.2705 0.9543 -0.1268
vn 0.0000 0.0082 -1.0000
vn -0.0001 0.5591 -0.8291
vn -0.5099 0.8124 -0.2827
vn 0.0000 0.0039 -1.0000
vn -0.0004 0.5571 -0.8305
vn 0.0004 -0.0029 -1.0000
vn -0.0002 0.0016 -1.0000
vn -0.0004 0.0010 -1.0000
vn 0.0000 -0.0013 -1.0000
vn -0.0003 0.0008 -1.0000
vn -0.0006 -0.0009 -1.0000
vn -0.0001 0.7075 -0.7067
vn 0.5420 0.7887 -0.2903
vn -0.9017 0.4324 0.0000
vn -0.5099 0.8124 -0.2828
vn -0.5327 0.8463 0.0000
vn -0.0000 0.9525 0.3046
vn -0.0001 0.7076 -0.7067
vn 0.5420 0.7886 -0.2903
vn -0.0000 0.9522 -0.3055
vn 0.2705 0.9543 -0.1267
vn -0.8515 0.5243 0.0000
vn -0.8627 0.5057 -0.0000
vn -0.8626 0.5058 0.0001
vn -0.4254 0.9028 0.0639
vn 0.2705 0.9544 -0.1266
vn 0.3287 0.9444 0.0000
vn -0.0002 0.9865 0.1635
vn -0.3287 0.9444 -0.0000
vn 0.5665 0.8240 0.0000
usemtl Default_OBJ
s 1
f 1/1/1 2/2/1 3/3/2
f 4/4/2 2/2/1 5/5/3
f 6/6/4 5/5/3 7/7/5
f 6/6/4 4/4/2 5/5/3
f 6/6/4 8/8/6 4/4/2
f 8/8/6 9/9/6 4/4/2
f 10/10/6 11/11/6 12/12/6
f 13/13/6 10/10/6 12/12/6
f 14/14/6 15/15/6 16/16/6
f 17/17/6 14/14/6 16/16/6
f 18/18/7 19/19/8 20/20/7
f 18/18/7 21/21/9 19/19/8
f 22/22/10 23/23/9 21/21/9
f 23/23/9 22/22/10 24/24/11
f 25/25/6 26/26/6 27/27/6
f 28/28/6 25/25/6 27/27/6
f 29/29/6 25/25/6 28/28/6
f 30/30/6 29/29/6 28/28/6
f 31/31/6 32/32/12 33/33/6
f 34/34/6 31/31/6 33/33/6
f 35/35/6 31/31/6 34/34/6
f 36/36/6 35/35/6 34/34/6
f 36/36/6 37/37/6 35/35/6
f 37/37/6 38/38/13 35/35/6
f 39/39/6 40/40/14 41/41/15
f 42/42/16 39/39/6 41/41/15
f 43/43/6 39/39/6 42/42/16
f 44/44/6 43/43/6 42/42/16
f 44/44/6 45/45/6 43/43/6
f 45/45/6 46/46/14 43/43/6
f 47/47/6 48/48/4 49/49/6
f 50/50/6 47/47/6 49/49/6
f 51/51/6 47/47/6 50/50/6
f 52/52/6 51/51/6 50/50/6
f 52/52/6 53/53/6 51/51/6
f 53/53/6 54/54/6 51/51/6
f 54/54/6 55/55/2 51/51/6
f 56/56/17 57/57/18 58/58/19
f 56/56/17 58/58/19 59/59/20
f 60/60/17 56/56/17 59/59/20
f 59/59/20 61/61/21 60/60/17
f 61/61/21 62/62/22 60/60/17
f 63/63/23 64/64/24 65/65/25
f 66/66/26 63/63/23 65/65/25
f 63/63/23 66/66/26 67/67/27
f 66/66/26 68/68/28 67/67/27
f 69/69/29 68/68/28 66/66/26
f 70/70/30 68/68/28 69/69/29
f 71/71/11 69/69/29 66/66/26
f 71/71/11 72/72/31 69/69/29
f 72/72/31 73/73/31 69/69/29
f 74/74/32 75/75/22 76/76/33
f 77/77/34 74/74/32 76/76/33
f 77/77/34 76/76/33 78/78/33
f 79/79/34 77/77/34 78/78/33
f 79/79/34 78/78/33 80/80/33
f 81/81/34 79/79/34 80/80/33
f 81/81/34 80/80/33 82/82/35
f 83/83/36 81/81/34 82/82/35
f 84/84/37 85/85/38 86/86/39
f 85/85/38 87/87/40 86/86/39
f 85/85/38 88/88/41 87/87/40
f 88/88/41 89/89/42 87/87/40
f 90/90/43 91/91/44 92/92/22
f 91/91/44 93/93/17 92/92/22
f 91/91/44 94/94/44 93/93/17
f 94/94/44 95/95/17 93/93/17
f 94/94/44 96/96/45 95/95/17
f 96/96/45 97/97/41 95/95/17
f 98/98/46 99/99/35 100/100/47
f 101/101/48 98/98/46 100/100/47
f 101/101/48 100/100/47 102/102/47
f 103/103/48 101/101/48 102/102/47
f 103/103/48 102/102/47 104/104/37
f 105/105/49 103/103/48 104/104/37
f 106/106/50 107/107/51 108/108/33
f 107/107/51 109/109/52 108/108/33
f 109/109/52 110/110/33 108/108/33
f 110/110/33 109/109/52 111/111/53
f 112/112/33 110/110/33 111/111/53
f 113/113/54 112/112/33 111/111/53
f 114/114/35 115/115/55 116/116/47
f 115/115/55 117/117/56 116/116/47
f 116/116/47 117/117/56 118/118/47
f 117/117/56 119/119/57 118/118/47
f 119/119/57 120/120/37 118/118/47
f 121/121/58 122/122/59 123/123/60
f 121/121/58 124/124/61 122/122/59
f 125/125/62 122/122/59 124/124/61
f 124/124/61 126/126/63 127/127/64
f 127/127/64 125/125/62 124/124/61
f 128/128/65 127/127/64 129/129/66
f 128/128/65 125/125/62 127/127/64
f 128/128/65 130/130/67 125/125/62
f 128/128/65 131/131/68 130/130/67
f 130/130/67 132/132/69 125/125/62
f 130/130/67 133/133/70 132/132/69
f 134/134/71 135/135/71 136/136/72
f 137/137/71 134/134/71 136/136/72
f 138/138/73 137/137/71 136/136/72
f 139/139/60 140/140/59 141/141/6
f 140/140/59 142/142/62 141/141/6
f 142/142/62 143/143/6 141/141/6
f 141/141/6 143/143/6 144/144/51
f 143/143/6 145/145/74 144/144/51
f 146/146/6 143/143/6 142/142/62
f 145/145/74 143/143/6 146/146/6
f 147/147/53 145/145/74 146/146/6
f 148/148/75 146/146/6 142/142/62
f 148/148/75 149/149/76 146/146/6
f 150/150/37 151/151/57 152/152/38
f 151/151/57 153/153/77 152/152/38
f 152/152/38 153/153/77 154/154/78
f 155/155/41 152/152/38 154/154/78
f 156/156/71 157/157/71 158/158/73
f 159/159/73 156/156/71 158/158/73
f 156/156/71 159/159/73 160/160/25
f 160/160/25 161/161/71 156/156/71
f 162/162/14 163/163/79 164/164/79
f 162/162/14 165/165/14 163/163/79
f 165/165/14 166/166/79 163/163/79
f 167/167/79 166/166/79 165/165/14
f 162/162/14 168/168/6 165/165/14
f 168/168/6 169/169/6 165/165/14
f 170/170/13 171/171/80 172/172/80
f 170/170/13 173/173/13 171/171/80
f 173/173/13 174/174/80 171/171/80
f 174/174/80 173/173/13 175/175/81
f 170/170/13 176/176/6 173/173/13
f 176/176/6 177/177/6 173/173/13
f 178/178/6 179/179/82 180/180/73
f 181/181/6 178/178/6 180/180/73
f 182/182/83 178/178/6 181/181/6
f 183/183/73 181/181/6 180/180/73
f 184/184/84 182/182/83 181/181/6
f 181/181/6 183/183/73 185/185/6
f 181/181/6 185/185/6 184/184/84
f 183/183/73 186/186/60 185/185/6
f 185/185/6 187/187/51 184/184/84
f 188/188/57 189/189/6 190/190/77
f 189/189/6 191/191/6 190/190/77
f 192/192/83 190/190/77 191/191/6
f 189/189/6 193/193/11 191/191/6
f 194/194/6 192/192/83 191/191/6
f 193/193/11 195/195/85 191/191/6
f 194/194/6 191/191/6 196/196/82
f 191/191/6 195/195/85 196/196/82
f 197/197/53 198/198/6 199/199/86
f 200/200/6 201/201/57 199/199/86
f 198/198/6 202/202/6 199/199/86
f 202/202/6 200/200/6 199/199/86
f 198/198/6 203/203/76 202/202/6
f 203/203/76 204/204/87 202/202/6
f 204/204/87 205/205/87 202/202/6
f 205/205/87 200/200/6 202/202/6
f 205/205/87 206/206/11 200/200/6
